<svg width="18" height="18" viewBox="0 0 18 18" fill="none" xmlns="http://www.w3.org/2000/svg">
<g opacity="0.5">
<path fill-rule="evenodd" clip-rule="evenodd" d="M11.8873 1.87555C12.3606 1.87555 12.8331 1.9423 13.2823 2.09305C16.0506 2.99305 17.0481 6.03055 16.2148 8.68555C15.7423 10.0423 14.9698 11.2805 13.9581 12.2923C12.5098 13.6948 10.9206 14.9398 9.20985 16.0123L9.02235 16.1255L8.82735 16.0048C7.1106 14.9398 5.51235 13.6948 4.0506 12.2848C3.0456 11.273 2.27235 10.0423 1.79235 8.68555C0.944848 6.03055 1.94235 2.99305 4.7406 2.0773C4.9581 2.0023 5.18235 1.9498 5.40735 1.92055H5.49735C5.7081 1.8898 5.91735 1.87555 6.12735 1.87555H6.20985C6.68235 1.8898 7.13985 1.9723 7.5831 2.12305H7.62735C7.65735 2.1373 7.67985 2.15305 7.69485 2.1673C7.8606 2.22055 8.01735 2.28055 8.16735 2.36305L8.45235 2.49055C8.52122 2.52728 8.59851 2.5834 8.66532 2.6319C8.70765 2.66263 8.74576 2.6903 8.77485 2.70805C8.78709 2.71527 8.79953 2.72253 8.81207 2.72985C8.87638 2.76739 8.94336 2.80649 8.99985 2.8498C9.8331 2.21305 10.8448 1.86805 11.8873 1.87555ZM13.8823 7.27555C14.1898 7.2673 14.4523 7.02055 14.4748 6.7048V6.61555C14.4973 5.5648 13.8606 4.61305 12.8923 4.24555C12.5848 4.1398 12.2473 4.30555 12.1348 4.62055C12.0298 4.93555 12.1948 5.28055 12.5098 5.3923C12.9906 5.5723 13.3123 6.04555 13.3123 6.5698V6.59305C13.2981 6.7648 13.3498 6.93055 13.4548 7.05805C13.5598 7.18555 13.7173 7.2598 13.8823 7.27555Z" fill="white"/>
</g>
</svg>
